<?xml version="1.0" encoding="UTF-8"?>
<svg id="katman_2" data-name="katman 2" xmlns="http://www.w3.org/2000/svg" viewBox="0 0 150 150">
  <defs>
    <style>
      .cls-1 {
        fill: #78f701;
      }

      .cls-1, .cls-2 {
        stroke-width: 0px;
      }

      .cls-3 {
        stroke-width: .48px;
      }

      .cls-3, .cls-2, .cls-4 {
        fill: none;
      }

      .cls-3, .cls-4 {
        stroke: #f7efef;
      }

      .cls-4 {
        stroke-width: .72px;
      }

      .cls-5 {
        fill: #fff;
        font-family: InputMono-Thin, 'Input Mono';
        font-size: 10.05px;
        font-weight: 200;
      }
    </style>
  </defs>
  <g id="katman_1" data-name="katman 1">
    <g>
      <g>
        <g id="Ellipse_3" data-name="Ellipse 3">
          <circle class="cls-2" cx="75" cy="75" r="75"/>
          <circle class="cls-4" cx="75" cy="75" r="74.64"/>
        </g>
        <g id="Ellipse_3-2" data-name="Ellipse 3">
          <circle class="cls-2" cx="75" cy="75" r="49.97"/>
          <circle class="cls-3" cx="75" cy="75" r="49.73"/>
        </g>
        <g id="Ellipse_4" data-name="Ellipse 4">
          <circle class="cls-2" cx="75" cy="75" r="52.75"/>
          <text class="cls-5" transform="translate(74.92 22.51) rotate(3.35)"><tspan x="0" y="0">C</tspan></text>
          <text class="cls-5" transform="translate(81.11 22.86) rotate(10.11)"><tspan x="0" y="0">o</tspan></text>
          <text class="cls-5" transform="translate(87.21 23.94) rotate(16.92)"><tspan x="0" y="0">m</tspan></text>
          <text class="cls-5" transform="translate(93.13 25.72) rotate(23.72)"><tspan x="0" y="0">m</tspan></text>
          <text class="cls-5" transform="translate(98.8 28.2) rotate(30.51)"><tspan x="0" y="0">u</tspan></text>
          <text class="cls-5" transform="translate(104.15 31.34) rotate(37.26)"><tspan x="0" y="0">n</tspan></text>
          <text class="cls-5" transform="translate(109.07 35.07) rotate(43.98)"><tspan x="0" y="0">i</tspan></text>
          <text class="cls-5" transform="translate(113.53 39.35) rotate(50.68)"><tspan x="0" y="0">t</tspan></text>
          <text class="cls-5" transform="translate(117.46 44.13) rotate(57.42)"><tspan x="0" y="0">y</tspan></text>
          <text class="cls-5" transform="translate(120.81 49.35) rotate(64.21)"><tspan x="0" y="0">-</tspan></text>
          <text class="cls-5" transform="translate(123.51 54.91) rotate(70.99)"><tspan x="0" y="0">D</tspan></text>
          <text class="cls-5" transform="translate(125.54 60.76) rotate(77.81)"><tspan x="0" y="0">r</tspan></text>
          <text class="cls-5" transform="translate(126.85 66.81) rotate(84.59)"><tspan x="0" y="0">i</tspan></text>
          <text class="cls-5" transform="translate(127.45 72.99) rotate(91.27)"><tspan x="0" y="0">v</tspan></text>
          <text class="cls-5" transform="translate(127.33 79.16) rotate(97.97)"><tspan x="0" y="0">e</tspan></text>
          <text class="cls-5" transform="translate(126.48 85.3) rotate(104.76)"><tspan x="0" y="0">n</tspan></text>
          <text class="cls-5" transform="translate(124.92 91.27) rotate(111.56)"><tspan x="0" y="0"> </tspan></text>
          <text class="cls-5" transform="translate(122.65 97.06) rotate(118.38)"><tspan x="0" y="0">D</tspan></text>
          <text class="cls-5" transform="translate(119.73 102.49) rotate(125.12)"><tspan x="0" y="0">e</tspan></text>
          <text class="cls-5" transform="translate(116.18 107.55) rotate(131.84)"><tspan x="0" y="0">v</tspan></text>
          <text class="cls-5" transform="translate(112.04 112.19) rotate(138.59)"><tspan x="0" y="0">e</tspan></text>
          <text class="cls-5" transform="translate(107.41 116.29) rotate(145.31)"><tspan x="0" y="0">l</tspan></text>
          <text class="cls-5" transform="translate(102.34 119.81) rotate(152.05)"><tspan x="0" y="0">o</tspan></text>
          <text class="cls-5" transform="translate(96.86 122.74) rotate(158.88)"><tspan x="0" y="0">p</tspan></text>
          <text class="cls-5" transform="translate(91.11 124.97) rotate(165.66)"><tspan x="0" y="0">m</tspan></text>
          <text class="cls-5" transform="translate(85.11 126.52) rotate(172.46)"><tspan x="0" y="0">e</tspan></text>
          <text class="cls-5" transform="translate(78.96 127.34) rotate(179.07)"><tspan x="0" y="0">n</tspan></text>
          <text class="cls-5" transform="translate(72.78 127.44) rotate(-174.16)"><tspan x="0" y="0">t</tspan></text>
          <text class="cls-5" transform="translate(66.63 126.83) rotate(-167.38)"><tspan x="0" y="0"> </tspan></text>
          <text class="cls-5" transform="translate(60.59 125.49) rotate(-160.57)"><tspan x="0" y="0">U</tspan></text>
          <text class="cls-5" transform="translate(54.74 123.44) rotate(-153.77)"><tspan x="0" y="0">n</tspan></text>
          <text class="cls-5" transform="translate(49.18 120.71) rotate(-146.99)"><tspan x="0" y="0">i</tspan></text>
          <text class="cls-5" transform="translate(43.98 117.35) rotate(-140.25)"><tspan x="0" y="0">t</tspan></text>
          <text class="cls-5" transform="translate(39.22 113.41) rotate(-133.55)"><tspan x="0" y="0">e</tspan></text>
          <text class="cls-5" transform="translate(34.96 108.94) rotate(-126.83)"><tspan x="0" y="0">,</tspan></text>
          <text class="cls-5" transform="translate(31.23 103.98) rotate(-120.07)"><tspan x="0" y="0"> </tspan></text>
          <text class="cls-5" transform="translate(28.11 98.62) rotate(-113.28)"><tspan x="0" y="0">C</tspan></text>
          <text class="cls-5" transform="translate(25.66 92.95) rotate(-106.48)"><tspan x="0" y="0">r</tspan></text>
          <text class="cls-5" transform="translate(23.89 87.02) rotate(-99.68)"><tspan x="0" y="0">e</tspan></text>
          <text class="cls-5" transform="translate(22.84 80.93) rotate(-92.95)"><tspan x="0" y="0">a</tspan></text>
          <text class="cls-5" transform="translate(22.51 74.74) rotate(-86.28)"><tspan x="0" y="0">t</tspan></text>
          <text class="cls-5" transform="translate(22.9 68.55) rotate(-79.51)"><tspan x="0" y="0">e</tspan></text>
          <text class="cls-5" transform="translate(24.01 62.47) rotate(-72.72)"><tspan x="0" y="0">,</tspan></text>
          <text class="cls-5" transform="translate(25.84 56.56) rotate(-65.91)"><tspan x="0" y="0"> </tspan></text>
          <text class="cls-5" transform="translate(28.35 50.92) rotate(-59.15)"><tspan x="0" y="0">I</tspan></text>
          <text class="cls-5" transform="translate(31.52 45.59) rotate(-52.39)"><tspan x="0" y="0">n</tspan></text>
          <text class="cls-5" transform="translate(35.29 40.67) rotate(-45.66)"><tspan x="0" y="0">n</tspan></text>
          <text class="cls-5" transform="translate(39.61 36.23) rotate(-38.93)"><tspan x="0" y="0">o</tspan></text>
          <text class="cls-5" transform="translate(44.42 32.33) rotate(-32.19)"><tspan x="0" y="0">v</tspan></text>
          <text class="cls-5" transform="translate(49.65 29.03) rotate(-25.42)"><tspan x="0" y="0">a</tspan></text>
          <text class="cls-5" transform="translate(55.24 26.35) rotate(-18.61)"><tspan x="0" y="0">t</tspan></text>
          <text class="cls-5" transform="translate(61.09 24.37) rotate(-11.81)"><tspan x="0" y="0">e</tspan></text>
        </g>
      </g>
      <g>
        <path class="cls-1" d="m63.55,82.05v-1.06l10.71-6.58-10.71-6.58v-1.06l11.51,7.05v1.17l-11.51,7.05Z"/>
        <path class="cls-1" d="m73.3,83.22v-1.17h13.15v1.17h-13.15Z"/>
        <path class="cls-1" d="m73.3,82.63v-1.17h13.15v1.17h-13.15Z"/>
      </g>
    </g>
  </g>
</svg>